<svg width="24" height="24" viewBox="0 0 24 24" fill="none" xmlns="http://www.w3.org/2000/svg">
<path fill-rule="evenodd" clip-rule="evenodd" d="M11.9985 1.5C12.237 1.49974 12.4695 1.5753 12.6622 1.71578C12.855 1.85625 12.9982 2.05436 13.071 2.2815L18 17.685L19.929 11.658C20.0015 11.4308 20.1443 11.2326 20.3368 11.0918C20.5293 10.9511 20.7615 10.8752 21 10.875H22.875C23.1734 10.875 23.4595 10.9935 23.6705 11.2045C23.8815 11.4155 24 11.7016 24 12C24 12.2984 23.8815 12.5845 23.6705 12.7955C23.4595 13.0065 23.1734 13.125 22.875 13.125H21.8205L19.071 21.7185C18.9981 21.9452 18.8551 22.143 18.6627 22.2833C18.4702 22.4236 18.2382 22.4991 18 22.4991C17.7618 22.4991 17.5298 22.4236 17.3373 22.2833C17.1449 22.143 17.0019 21.9452 16.929 21.7185L12.0075 6.339L8.5725 17.214C8.50163 17.4381 8.36236 17.6344 8.17424 17.7753C7.98612 17.9161 7.7586 17.9946 7.52362 17.9995C7.28864 18.0045 7.05801 17.9357 6.86411 17.8029C6.6702 17.6701 6.52277 17.4799 6.4425 17.259L4.5465 12.045L4.4415 12.357C4.36692 12.5809 4.2238 12.7757 4.0324 12.9138C3.841 13.0519 3.61102 13.1263 3.375 13.1265H1.125C0.826631 13.1265 0.540483 13.008 0.329505 12.797C0.118526 12.586 0 12.2999 0 12.0015C0 11.7031 0.118526 11.417 0.329505 11.206C0.540483 10.995 0.826631 10.8765 1.125 10.8765H2.565L3.432 8.271C3.5055 8.04908 3.64631 7.85556 3.83485 7.71735C4.0234 7.57914 4.25032 7.50311 4.48408 7.49981C4.71783 7.49651 4.94681 7.56611 5.13918 7.69894C5.33155 7.83178 5.47777 8.02124 5.5575 8.241L7.425 13.3785L10.9275 2.2875C10.9992 2.05949 11.1417 1.86024 11.3342 1.71864C11.5268 1.57705 11.7595 1.50046 11.9985 1.5Z" fill="#64C795"/>
</svg>
