<svg width="28" height="28" viewBox="0 0 28 28" fill="none" xmlns="http://www.w3.org/2000/svg">
<path d="M12.008 2.79523C12.1527 2.93989 12.2483 3.09156 12.309 3.20356C12.4012 3.37273 12.47 3.55356 12.5248 3.71689C12.6298 4.02956 12.7372 4.44606 12.8597 4.92089L17.153 21.5342L19.029 14.4666L19.0442 14.4082L19.0477 14.3954C19.099 14.1971 19.1842 13.8657 19.3778 13.5869C19.5538 13.3303 19.7951 13.1254 20.0767 12.9931C20.2995 12.8881 20.5072 12.8566 20.66 12.8449C20.7825 12.8332 20.9167 12.8344 21.0193 12.8344H24.5007C24.8101 12.8344 25.1068 12.9573 25.3256 13.1761C25.5444 13.3949 25.6673 13.6916 25.6673 14.0011C25.6673 14.3105 25.5444 14.6072 25.3256 14.826C25.1068 15.0448 24.8101 15.1677 24.5007 15.1677H21.2573L19.1527 23.0952C19.0267 23.5689 18.917 23.9842 18.8097 24.2969C18.7503 24.4736 18.677 24.6452 18.5903 24.8102C18.4642 25.0454 18.2823 25.2461 18.0607 25.3947C17.7862 25.5734 17.4654 25.6679 17.1379 25.6666C16.8104 25.6654 16.4904 25.5684 16.2173 25.3877C15.9968 25.2372 15.8165 25.0349 15.6923 24.7986C15.6068 24.6331 15.5346 24.461 15.4765 24.2841C15.3715 23.9714 15.2642 23.5549 15.1417 23.0801L10.8483 6.46673L8.97232 13.5332L8.95715 13.5916L8.95365 13.6044C8.90232 13.8027 8.81598 14.1341 8.62348 14.4129C8.44747 14.6694 8.20624 14.8744 7.92465 15.0067C7.70182 15.1117 7.49415 15.1432 7.34132 15.1549C7.21882 15.1666 7.08465 15.1654 6.98199 15.1654H3.50065C3.19123 15.1654 2.89449 15.0425 2.67569 14.8237C2.4569 14.6049 2.33398 14.3081 2.33398 13.9987C2.33398 13.6893 2.4569 13.3926 2.67569 13.1738C2.89449 12.955 3.19123 12.8321 3.50065 12.8321H6.74398L8.84865 4.90339C8.97465 4.43089 9.08432 4.01439 9.19165 3.70406C9.24765 3.54073 9.31765 3.35989 9.41098 3.19073C9.53698 2.95512 9.71885 2.75402 9.94065 2.60506C10.2563 2.39938 10.632 2.30615 11.0071 2.34045C11.3823 2.37475 11.7349 2.53573 12.008 2.79523Z" fill="#479E4B"/>
</svg>
