<svg width="20" height="20" viewBox="0 0 20 20" fill="none" xmlns="http://www.w3.org/2000/svg">
<path d="M11.6667 1.66669V6.66669C11.6665 6.94626 11.7368 7.22136 11.8708 7.46669L16.4625 15.8667C16.6014 16.1205 16.6718 16.4062 16.6668 16.6955C16.6618 16.9848 16.5816 17.2678 16.434 17.5167C16.2864 17.7656 16.0766 17.9718 15.8252 18.115C15.5737 18.2582 15.2894 18.3334 15 18.3334H5C4.71065 18.3334 4.42626 18.2582 4.17482 18.115C3.92339 17.9718 3.71356 17.7656 3.56599 17.5167C3.41842 17.2678 3.33819 16.9848 3.3332 16.6955C3.3282 16.4062 3.39861 16.1205 3.5375 15.8667L8.12917 7.46669C8.26324 7.22136 8.33345 6.94626 8.33333 6.66669V1.66669" stroke="#2E7D32" stroke-width="1.66667" stroke-linecap="round" stroke-linejoin="round"/>
<path d="M5.3775 12.5H14.6225" stroke="#2E7D32" stroke-width="1.66667" stroke-linecap="round" stroke-linejoin="round"/>
<path d="M7.08331 1.66669H12.9166" stroke="#2E7D32" stroke-width="1.66667" stroke-linecap="round" stroke-linejoin="round"/>
</svg>
