<svg width="20" height="20" viewBox="0 0 20 20" fill="none" xmlns="http://www.w3.org/2000/svg">
<g clip-path="url(#clip0_751_2914)">
<path d="M16.6666 10.8334C16.6666 15 13.75 17.0834 10.2833 18.2917C10.1018 18.3532 9.90459 18.3503 9.72498 18.2834C6.24998 17.0834 3.33331 15 3.33331 10.8334V5.00003C3.33331 4.77902 3.42111 4.56705 3.57739 4.41077C3.73367 4.25449 3.94563 4.1667 4.16665 4.1667C5.83331 4.1667 7.91665 3.1667 9.36665 1.90003C9.54319 1.74919 9.76777 1.66632 9.99998 1.66632C10.2322 1.66632 10.4568 1.74919 10.6333 1.90003C12.0916 3.17503 14.1666 4.1667 15.8333 4.1667C16.0543 4.1667 16.2663 4.25449 16.4226 4.41077C16.5788 4.56705 16.6666 4.77902 16.6666 5.00003V10.8334Z" stroke="#2E7D32" stroke-width="1.66667" stroke-linecap="round" stroke-linejoin="round"/>
<path d="M7.5 9.99998L9.16667 11.6666L12.5 8.33331" stroke="#2E7D32" stroke-width="1.66667" stroke-linecap="round" stroke-linejoin="round"/>
</g>
<defs>
<clipPath id="clip0_751_2914">
<rect width="20" height="20" fill="white"/>
</clipPath>
</defs>
</svg>
