<svg width="137" height="34" viewBox="0 0 137 34" fill="none" xmlns="http://www.w3.org/2000/svg">
<path d="M1.19476 32.7001C0.505068 32.6695 -0.0292913 32.0857 0.00123272 31.396L0.498591 20.157C0.529099 19.4673 1.11295 18.933 1.80262 18.9635C2.49231 18.994 3.02666 19.5779 2.99615 20.2675L2.55404 30.2578L12.5443 30.6999C13.234 30.7304 13.7683 31.3142 13.7378 32.0039C13.7073 32.6936 13.1234 33.2279 12.4338 33.1974L1.19476 32.7001ZM135.25 28.9511C134.337 29.8045 134.337 29.8046 134.337 29.8046C134.337 29.8046 134.337 29.8047 134.337 29.8047C134.337 29.8047 134.337 29.8048 134.337 29.8048C134.337 29.8048 134.337 29.8048 134.337 29.8048C134.337 29.8048 134.337 29.8046 134.337 29.8043C134.336 29.8038 134.335 29.8027 134.333 29.8011C134.33 29.7979 134.326 29.7926 134.319 29.7854C134.305 29.7709 134.284 29.7485 134.255 29.7183C134.197 29.658 134.109 29.5669 133.992 29.4472C133.757 29.208 133.404 28.8547 132.938 28.4058L133.806 27.5061L134.674 26.6064C135.156 27.0718 135.526 27.4411 135.776 27.6957C135.901 27.8231 135.996 27.9218 136.061 27.9895C136.093 28.0234 136.118 28.0495 136.135 28.0677C136.144 28.0767 136.15 28.0838 136.155 28.0888C136.157 28.0913 136.159 28.0933 136.161 28.0948C136.161 28.0955 136.162 28.0961 136.162 28.0966C136.163 28.0969 136.163 28.0971 136.163 28.0972C136.163 28.0973 136.163 28.0974 136.163 28.0975C136.163 28.0975 136.163 28.0976 136.163 28.0976C136.163 28.0976 136.163 28.0977 135.25 28.9511ZM130.771 24.7257L129.948 25.6665C129.036 24.8687 127.991 23.9849 126.82 23.0417L127.604 22.0682L128.388 21.0947C129.587 22.0604 130.659 22.9661 131.594 23.7849L130.771 24.7257ZM124.345 19.5455L123.599 20.5484C122.562 19.7774 121.459 18.9856 120.292 18.1843L120.999 17.1537L121.706 16.1232C122.901 16.9433 124.03 17.7536 125.091 18.5426L124.345 19.5455ZM117.559 14.8886L116.892 15.9458C115.773 15.2397 114.607 14.5344 113.398 13.8376L114.023 12.7546L114.647 11.6716C115.886 12.3858 117.08 13.1083 118.226 13.8314L117.559 14.8886ZM110.419 10.7748L109.84 11.8826C108.658 11.2649 107.442 10.6602 106.192 10.0744L106.722 8.94256L107.253 7.81072C108.537 8.41245 109.786 9.03319 110.998 9.66698L110.419 10.7748ZM102.957 7.2797L102.478 8.43438C101.243 7.92234 99.9806 7.43197 98.6918 6.96804L99.1151 5.79192L99.5385 4.61579C100.866 5.09363 102.165 5.59837 103.436 6.12502L102.957 7.2797ZM95.2001 4.49129L94.836 5.68708C93.557 5.29766 92.2555 4.93665 90.9326 4.60819L91.2339 3.39503L91.5351 2.18186C92.9015 2.52114 94.245 2.89381 95.5642 3.29549L95.2001 4.49129ZM87.2112 2.51116L86.9766 3.73895C85.662 3.48774 84.3287 3.27057 82.9779 3.09113L83.1425 1.85202L83.3071 0.612899C84.7061 0.798731 86.086 1.02354 87.4458 1.28338L87.2112 2.51116ZM79.0418 1.42869L78.9502 2.67532C77.6197 2.5775 76.274 2.51789 74.9139 2.49978L74.9305 1.24989L74.9472 -2.16276e-06C76.3584 0.0187886 77.7541 0.0806347 79.1335 0.182051L79.0418 1.42869ZM70.8141 1.32068L70.8739 2.56925C70.2019 2.60143 69.5267 2.6441 68.8484 2.69764L68.7501 1.45152L68.6517 0.205398C69.3558 0.149808 70.0568 0.105511 70.7544 0.0721128L70.8141 1.32068ZM68.7501 1.45152L68.8484 2.69764C68.1619 2.75184 67.4781 2.81399 66.7972 2.88379L66.6697 1.64031L66.5423 0.396823C67.2423 0.325064 67.9455 0.261148 68.6517 0.205398L68.7501 1.45152ZM62.5351 2.15962L62.7188 3.39605C61.3547 3.59867 60.0035 3.83053 58.6664 4.08904L58.4291 2.86176L58.1919 1.63449C59.5636 1.36929 60.9506 1.13128 62.3515 0.923184L62.5351 2.15962ZM54.3519 3.73933L54.6402 4.95563C53.2938 5.27475 51.9636 5.61931 50.6505 5.98648L50.3139 4.78267L49.9773 3.57885C51.3214 3.20298 52.6839 2.85005 54.0636 2.52303L54.3519 3.73933ZM46.3219 5.98223L46.7042 7.17232C45.3847 7.59624 44.085 8.04121 42.8064 8.50406L42.3809 7.3287L41.9555 6.15335C43.2617 5.68048 44.5902 5.22565 45.9396 4.79214L46.3219 5.98223ZM38.4837 8.81767L38.95 9.97743C37.6566 10.4975 36.3879 11.0337 35.1455 11.5822L34.6406 10.4388L34.1357 9.29528C35.4027 8.7358 36.6971 8.18875 38.0174 7.65791L38.4837 8.81767ZM30.8606 12.1815L31.402 13.3081C30.1362 13.9164 28.9022 14.5346 27.7018 15.1581L27.1256 14.0488L26.5494 12.9396C27.772 12.3045 29.0292 11.6747 30.3192 11.0548L30.8606 12.1815ZM23.4591 16.0243L24.0685 17.1158C22.8305 17.8069 21.6354 18.499 20.4857 19.186L19.8445 18.113L19.2033 17.04C20.3732 16.3409 21.5896 15.6365 22.8498 14.9329L23.4591 16.0243ZM16.3055 20.2981L16.9775 21.3521C15.7601 22.1283 14.6073 22.8892 13.5229 23.6258L12.8205 22.5918L12.1182 21.5578C13.2218 20.8082 14.3948 20.0339 15.6335 19.2441L16.3055 20.2981ZM9.40801 24.9843L10.1408 25.9969C8.90295 26.8928 7.79497 27.7266 6.82595 28.4765L6.06095 27.4879L5.29595 26.4994C6.28499 25.734 7.41441 24.8841 8.67516 23.9717L9.40801 24.9843ZM2.81015 30.1015L3.61352 31.0591C3.10958 31.4819 2.72666 31.8132 2.47123 32.0375C2.34351 32.1496 2.24768 32.235 2.18452 32.2916C2.15295 32.3199 2.12954 32.3411 2.11442 32.3548C2.10686 32.3616 2.10137 32.3666 2.09795 32.3697C2.09623 32.3713 2.09505 32.3724 2.09438 32.373C2.09404 32.3733 2.09385 32.3735 2.09378 32.3735C2.09374 32.3736 2.09374 32.3736 2.09377 32.3736C2.09378 32.3735 2.09381 32.3735 2.09383 32.3735C2.09385 32.3735 2.09388 32.3734 2.09389 32.3734C2.09392 32.3734 2.09396 32.3734 1.25001 31.4513C0.406061 30.5292 0.406103 30.5292 0.406145 30.5291C0.406159 30.5291 0.406201 30.5291 0.406229 30.529C0.406299 30.529 0.406368 30.5289 0.406452 30.5288C0.406605 30.5287 0.4068 30.5285 0.407038 30.5283C0.407483 30.5279 0.408069 30.5274 0.40878 30.5267C0.410216 30.5254 0.412168 30.5236 0.414651 30.5214C0.419601 30.5169 0.426644 30.5104 0.435768 30.5022C0.454016 30.4856 0.480573 30.4617 0.515359 30.4305C0.5849 30.3681 0.68731 30.2769 0.821761 30.1588C1.09068 29.9227 1.48784 29.5792 2.00678 29.1438L2.81015 30.1015Z" fill="#479E4B"/>
</svg>
