<svg width="32" height="32" viewBox="0 0 32 32" fill="none" xmlns="http://www.w3.org/2000/svg">
<path d="M14.9221 21.0092C14.9221 19.8358 14.6154 18.8505 14.0021 18.0532C13.5674 17.5038 12.9776 17.1429 12.2327 16.9705C11.4994 16.7998 10.8061 16.7878 10.1794 16.9332C9.96607 15.6665 10.3127 14.3252 11.1927 12.9038C12.0745 11.4834 13.2114 10.4154 14.6034 9.69984L12.4954 6.6665C11.4287 7.1945 10.4154 7.86384 9.48207 8.67317C8.5354 9.4825 7.6954 10.4132 6.94873 11.4652C6.20207 12.5172 5.64207 13.7052 5.28207 15.0518C4.92207 16.3985 4.82207 17.7718 4.99407 19.1852C5.21807 21.0518 5.82073 22.5452 6.80207 23.6518C7.78251 24.7727 9.00384 25.3332 10.4661 25.3332C11.7527 25.3332 12.8207 24.9465 13.6661 24.1625C14.5025 23.3945 14.9203 22.3421 14.9194 21.0052L14.9221 21.0092ZM27.0874 21.0092C27.0874 19.8358 26.7807 18.8505 26.1674 18.0532C25.7318 17.4932 25.1421 17.1301 24.3981 16.9638C23.6514 16.7994 22.967 16.7896 22.3447 16.9345C22.1314 15.6812 22.4647 14.3345 23.3474 12.9078C24.2274 11.4945 25.3634 10.4278 26.7554 9.70784L24.6527 6.6665C23.5852 7.1945 22.5807 7.86339 21.6394 8.67317C20.6842 9.4946 19.8358 10.4326 19.1141 11.4652C18.3727 12.5185 17.8207 13.7052 17.4607 15.0518C17.095 16.3975 16.9967 17.8017 17.1714 19.1852C17.3927 21.0518 17.9927 22.5452 18.9714 23.6518C19.9492 24.7647 21.1683 25.3212 22.6287 25.3212C23.9176 25.3229 24.9852 24.9332 25.8314 24.1518C26.6678 23.3838 27.0865 22.3314 27.0874 20.9945V21.0092Z" fill="#333F3A"/>
</svg>
