<svg width="20" height="20" viewBox="0 0 20 20" fill="none" xmlns="http://www.w3.org/2000/svg">
<path d="M2.5 5.83333V4.16667C2.5 3.72464 2.67559 3.30072 2.98816 2.98816C3.30072 2.67559 3.72464 2.5 4.16667 2.5H5.83333" stroke="#479E4B" stroke-width="1.66667" stroke-linecap="round" stroke-linejoin="round"/>
<path d="M14.166 2.5H15.8327C16.2747 2.5 16.6986 2.67559 17.0112 2.98816C17.3238 3.30072 17.4993 3.72464 17.4993 4.16667V5.83333" stroke="#479E4B" stroke-width="1.66667" stroke-linecap="round" stroke-linejoin="round"/>
<path d="M17.4993 14.1667V15.8334C17.4993 16.2754 17.3238 16.6994 17.0112 17.0119C16.6986 17.3245 16.2747 17.5001 15.8327 17.5001H14.166" stroke="#479E4B" stroke-width="1.66667" stroke-linecap="round" stroke-linejoin="round"/>
<path d="M5.83333 17.5001H4.16667C3.72464 17.5001 3.30072 17.3245 2.98816 17.0119C2.67559 16.6994 2.5 16.2754 2.5 15.8334V14.1667" stroke="#479E4B" stroke-width="1.66667" stroke-linecap="round" stroke-linejoin="round"/>
</svg>
