<svg width="59" height="35" viewBox="0 0 59 35" fill="none" xmlns="http://www.w3.org/2000/svg">
<path d="M28.007 15.2575C29.1107 15.6565 29.9794 13.8932 31.3245 14.1424C32.6697 14.3917 32.8711 15.327 34.4116 15.1165C35.9521 14.9061 37.4934 15.5459 38.1793 15.1616C38.8652 14.7772 38.9376 15.9394 39.9116 15.6812C40.8856 15.4231 41.4759 15.5748 42.3277 15.9526C43.1795 16.3304 45.7966 16.6529 46.7482 16.1888C47.6999 15.7247 48.7853 16.5299 49.438 16.7209C49.6413 16.7804 49.8013 16.8618 49.924 16.9465C49.976 16.9824 50 17.0575 50 17.1317C50 17.1317 50 17.1318 50 17.1318C50 17.2242 49.9628 17.315 49.896 17.3266C49.5718 17.3833 49.0872 17.5327 48.5148 17.8675C47.4475 18.4919 47.3309 17.8019 45.8897 18.1228C44.4485 18.4436 43.5826 19.085 41.8869 18.6702C40.1911 18.2555 39.8017 19.9912 37.408 19.0075C35.0143 18.024 34.7624 19.8391 32.377 20.0805C29.9917 20.3219 26.9806 19.3204 25.5427 19.4034C24.1048 19.4864 22.1735 19.6979 20.1351 19.4583C18.0966 19.2188 15.5802 19.8235 13.3301 19.3961C11.08 18.9687 7.89885 18.4288 6.42919 18.0671C4.9596 17.7054 4.60139 17.6238 3.18683 17.8448C2.37373 17.9719 1.25359 17.8521 0.307446 17.3848C-0.168716 17.1497 -0.0608172 16.8223 0.418456 16.6656C1.11931 16.4365 1.69463 16.5896 2.05575 16.1804C2.77735 15.3626 3.08403 15.0489 3.99499 15.5249C4.9059 16.0008 5.33512 14.9192 5.86613 15.0437C6.39716 15.1682 6.38843 15.8062 9.08847 15.3147C11.7885 14.8231 13.2687 14.6977 14.2912 14.5797C15.3137 14.4617 17.4488 15.0154 19.1152 14.8155C20.7816 14.6157 24.1694 14.7988 25.5351 14.4716C26.9007 14.1445 26.9035 14.8586 28.007 15.2575Z" fill="#9DCDA0"/>
<path d="M55.3128 19.907C54.4028 20.4335 55.3313 22.1167 54.4098 22.9032C53.4884 23.6897 52.6393 23.2589 51.9766 24.4625C51.314 25.666 49.9777 26.3509 49.9127 27.0642C49.8478 27.7777 48.8887 27.1183 48.5687 27.9557C48.2487 28.793 47.8108 29.1123 47.0532 29.476C46.2955 29.8397 44.6313 31.469 44.4864 32.4166C44.3415 33.3641 43.1197 33.6298 42.6171 33.9686C42.4605 34.0742 42.3099 34.1361 42.1768 34.17C42.1204 34.1843 42.048 34.1552 41.9893 34.1099C41.9893 34.1099 41.9892 34.1098 41.9892 34.1098C41.9161 34.0534 41.8642 33.972 41.891 33.9182C42.0206 33.6574 42.1632 33.228 42.2062 32.624C42.2864 31.4979 42.8955 31.8379 43.4173 30.6362C43.9391 29.4345 43.8974 28.4385 45.1387 27.5084C46.3799 26.5784 45.2154 25.2465 47.2828 24.1769C49.3502 23.1072 48.0485 21.8227 49.1415 20.0107C50.2346 18.1986 52.6485 16.7091 53.3569 15.655C53.4542 15.51 53.5547 15.3572 53.6589 15.1979L53.7533 18.1531C52.8978 17.3199 51.8244 16.2937 50.9567 14.9933C49.9507 13.4856 48.0324 12.2188 47.0443 10.447C46.0563 8.67518 44.611 6.21275 44.0277 5.00099C43.4444 3.78926 43.2973 3.49826 42.3083 2.70766C41.7398 2.25321 41.178 1.43258 40.9786 0.497747C40.8782 0.0272758 41.1869 -0.117424 41.5834 0.0964613C42.1632 0.409241 42.383 0.891154 42.9005 0.86012C43.9346 0.798014 44.3487 0.793968 44.5211 1.71127C44.6936 2.62849 45.7558 2.19867 45.9712 2.6324C46.1866 3.06618 45.7023 3.48154 47.6424 4.94462C49.5825 6.40772 50.5379 7.30487 51.2214 7.90391C51.905 8.50296 52.7312 10.282 53.8508 11.2533C54.8279 12.1009 56.3486 14.009 57.4114 14.9385L58.7209 16.0743L57.5147 18.1724C57.4113 18.3505 57.3265 18.5152 57.2658 18.662C56.7897 19.8148 56.2228 19.3806 55.3128 19.907Z" fill="#9DCDA0"/>
</svg>
