<svg width="205" height="14" viewBox="0 0 205 14" fill="none" xmlns="http://www.w3.org/2000/svg">
<path d="M77.5429 2.90886C78.7925 2.83024 79.9485 2.80256 81.421 2.76844C81.4218 2.76839 81.4226 2.76834 81.4233 2.76829C81.6335 2.76344 81.8503 2.75858 82.0743 2.75332C83.8792 2.71112 86.2269 2.64886 89.7537 2.49435C93.6655 2.32309 96.7552 2.33422 98.6597 2.40223C99.0138 2.415 99.3819 2.41286 100.301 2.38092C100.905 2.35998 101.72 2.32718 102.898 2.28092C103.525 2.25633 104.254 2.22784 105.108 2.19558C107.937 2.0883 112.36 1.86478 116.442 1.67078C118.919 1.55271 121.264 1.44489 123.052 1.37364C125.662 1.26957 128.177 1.19767 130.92 1.12382C133.424 1.05662 136.123 0.987707 139.235 0.89485C141.611 0.824094 143.959 0.870041 146.314 0.934077C146.615 0.942215 146.916 0.950571 147.217 0.959082C149.293 1.01789 151.449 1.07977 153.739 1.08564C157.855 1.09554 161.094 0.953262 164.745 0.801957C166.168 0.743068 167.61 0.684098 169.221 0.633058C171.764 0.552302 175.371 0.481447 179.025 0.424565C179.334 0.419731 179.643 0.414814 179.951 0.410176C179.953 0.41015 179.954 0.410124 179.956 0.410097C183.305 0.359354 186.538 0.321337 188.973 0.279978C192.797 0.215463 194.212 0.156842 195.427 0.10517C195.879 0.0860541 196.296 0.068411 196.792 0.0538074C198.551 0.00117624 201.309 -0.00399375 204.015 0.00215733C204.025 0.00215018 204.036 0.00214303 204.046 0.00213611C204.495 0.00311029 204.856 0.14433 204.854 0.317119C204.851 0.489934 204.488 0.629045 204.038 0.628074C202.605 0.624937 201.187 0.624629 199.904 0.632615C199.839 0.781349 199.49 0.895128 199.08 0.895864C198.1 0.897967 194.887 1.02307 190.037 1.25842C190.374 1.28181 190.655 1.30519 190.901 1.32768C191.19 1.35408 191.411 1.37714 191.601 1.39691C191.997 1.43814 192.259 1.46539 192.724 1.483C193.794 1.49801 195.547 1.48873 197.329 1.4834C197.781 1.48206 198.144 1.62107 198.143 1.79379C198.142 1.96658 197.776 2.10761 197.325 2.10906C197.316 2.10912 197.307 2.10917 197.299 2.10922C195.536 2.1145 193.723 2.12432 192.61 2.10817C192.324 2.10406 192.078 2.09843 191.892 2.09298C191.744 2.08861 191.558 2.08257 191.455 2.07346C191.442 2.07225 191.415 2.06979 191.384 2.06593C191.384 2.06584 191.383 2.06574 191.383 2.06564C191.365 2.06351 191.276 2.05274 191.181 2.0283C191.162 2.02337 191.12 2.01234 191.071 1.99432C191.059 1.99303 191.047 1.99173 191.034 1.99043C190.86 1.97245 190.682 1.95415 190.489 1.93661C189.744 1.86822 188.508 1.78438 186.046 1.71496C183.769 1.65153 179.912 1.66574 175.065 1.76007C175.394 1.76656 175.723 1.77275 176.052 1.77853C176.878 1.79306 177.706 1.80546 178.529 1.81719C178.845 1.82166 179.156 1.82608 179.472 1.83034C179.981 1.83726 180.49 1.84411 180.997 1.85084C181.342 1.85537 181.697 1.85967 182.046 1.86423C182.047 1.86422 182.047 1.8642 182.048 1.86419C182.534 1.8705 183.019 1.8771 183.507 1.88427C183.677 1.8871 183.846 1.88977 184.013 1.89236C184.678 1.9027 185.329 1.91299 186.076 1.94073C186.167 1.94576 186.265 1.95253 186.339 1.95829C186.418 1.96434 186.494 1.97057 186.566 1.97698C186.629 1.98264 186.689 1.98845 186.747 1.99384C186.755 1.99456 186.763 1.99527 186.771 1.99598C186.835 2.00202 186.897 2.00757 186.957 2.01281C187.016 2.01805 187.073 2.02309 187.13 2.02739C187.13 2.02738 187.131 2.02738 187.131 2.02737C187.19 2.03176 187.235 2.03506 187.297 2.0387C187.377 2.04324 187.446 2.04663 187.529 2.04982C187.61 2.05293 187.694 2.05555 187.779 2.05771C187.864 2.05987 187.95 2.06161 188.038 2.06309C188.126 2.06457 188.215 2.06586 188.304 2.06689C188.394 2.06792 188.485 2.06868 188.576 2.06945C188.667 2.07023 188.76 2.07101 188.852 2.07171C189.065 2.07335 189.27 2.10569 189.42 2.16286C189.57 2.22003 189.654 2.29696 189.654 2.37754C189.654 2.45813 189.57 2.53652 189.42 2.59625C189.269 2.65597 189.065 2.69196 188.852 2.69738C188.794 2.69885 188.735 2.70042 188.677 2.70187C188.642 2.70274 188.607 2.70348 188.572 2.70433C188.478 2.70661 188.383 2.70905 188.287 2.71109C188.191 2.71312 188.095 2.71487 187.997 2.71643C187.899 2.71799 187.799 2.71933 187.699 2.72009C187.598 2.72085 187.495 2.7211 187.39 2.72058C187.287 2.72015 187.176 2.71853 187.073 2.71605C186.999 2.71434 186.907 2.71097 186.831 2.70787C186.751 2.70462 186.673 2.70086 186.597 2.69687C186.521 2.69287 186.447 2.68855 186.377 2.68449C186.37 2.68408 186.362 2.68368 186.354 2.68327C186.292 2.67968 186.232 2.67618 186.176 2.67312C186.112 2.6697 186.052 2.66688 185.995 2.66455C185.932 2.66191 185.894 2.66104 185.847 2.66013C185.228 2.65842 184.461 2.67129 183.725 2.68405C183.633 2.68566 183.541 2.68719 183.449 2.68876C182.966 2.69746 182.482 2.70674 181.997 2.71627C181.646 2.72316 181.286 2.73036 180.941 2.73723C180.43 2.74738 179.917 2.75743 179.403 2.76736C179.084 2.77348 178.77 2.77938 178.45 2.78527C177.616 2.8007 176.775 2.81538 175.93 2.82784C175.081 2.84035 174.243 2.85044 173.404 2.85651C172.568 2.86255 171.695 2.86444 170.849 2.8577C170.227 2.85244 169.587 2.83389 168.994 2.81352C168.675 2.80251 168.36 2.79126 168.059 2.77971C168.058 2.77964 168.057 2.77956 168.056 2.77948C167.79 2.7694 167.527 2.75946 167.265 2.75034C166.705 2.73063 166.153 2.71452 165.601 2.70325C165.049 2.69195 164.498 2.6854 163.943 2.68388C163.391 2.68241 162.829 2.68567 162.272 2.69331C161.708 2.70109 161.173 2.71239 160.6 2.72791C159.85 2.74859 159.103 2.77455 158.334 2.80254C157.57 2.83051 156.799 2.86081 156.024 2.89174C155.753 2.90256 155.481 2.91323 155.209 2.92423C155.208 2.92426 155.207 2.92429 155.206 2.92432C154.707 2.94455 154.209 2.96493 153.709 2.98532C152.937 3.01678 152.161 3.04835 151.381 3.07894C150.601 3.1095 149.814 3.13927 149.022 3.16646C148.225 3.19365 147.427 3.21847 146.613 3.23514C145.888 3.25023 145.157 3.26298 144.44 3.27564C144.251 3.279 144.062 3.28238 143.873 3.28578C142.975 3.3021 142.1 3.32107 141.243 3.34912C140.389 3.37684 139.534 3.41385 138.67 3.4588C137.809 3.50359 136.936 3.55601 136.055 3.6134C135.17 3.67107 134.297 3.73249 133.412 3.79758C132.531 3.86234 131.646 3.93005 130.749 4.00063C130.25 4.03978 129.719 4.07881 129.217 4.11416C128.71 4.14987 128.206 4.18383 127.709 4.21672C127.508 4.23004 127.308 4.2431 127.109 4.2562C126.819 4.27531 126.532 4.2942 126.249 4.31329C125.771 4.34552 125.305 4.37828 124.852 4.41294C124.4 4.44759 123.961 4.48435 123.536 4.52464C123.097 4.56642 122.735 4.60541 122.303 4.65762C121.248 4.76781 120.594 4.81631 119.869 4.87052C119.726 4.8812 119.58 4.89232 119.428 4.90397C118.557 4.96746 117.687 5.02501 116.828 5.07794C115.961 5.13127 115.107 5.17983 114.241 5.22536C113.384 5.27047 112.522 5.31204 111.662 5.35034C110.803 5.38858 109.946 5.42348 109.087 5.45517C108.228 5.48686 107.352 5.51577 106.51 5.5405C106.023 5.55483 105.506 5.56759 105.025 5.57835C104.679 5.58612 104.337 5.59324 104.002 5.60026C103.865 5.60313 103.729 5.60598 103.595 5.60886C103.13 5.61882 102.679 5.62923 102.244 5.64194C101.808 5.65464 101.387 5.66956 100.975 5.68836C100.563 5.70717 100.159 5.72987 99.7558 5.75701C99.3367 5.7854 98.9889 5.81238 98.5446 5.85182C98.2552 5.87765 97.9718 5.90332 97.6893 5.92899C97.2663 5.96744 96.8465 6.00616 96.4239 6.04576C96.0018 6.08533 95.5853 6.12508 95.1667 6.16582C95.0322 6.17892 94.8901 6.19276 94.7552 6.20609C94.3384 6.24727 93.9266 6.28884 93.5153 6.33159C93.1051 6.37426 92.6982 6.41775 92.2913 6.46267C91.8832 6.50775 91.4823 6.55348 91.0736 6.60168C90.3791 6.68376 89.7138 6.74126 89.1313 6.78767C88.5418 6.83432 87.9912 6.87306 87.4556 6.9108C87.3553 6.91787 87.255 6.92494 87.1547 6.93202C86.7226 6.96235 86.2986 6.99203 85.8799 7.02262C85.3614 7.06043 84.8528 7.09935 84.3431 7.14029C83.8379 7.18083 83.3282 7.2237 82.8268 7.26848C82.3207 7.31373 81.8373 7.35903 81.317 7.41045C80.8025 7.46116 80.2806 7.51854 79.7094 7.5814C79.1453 7.64363 78.5451 7.70906 77.9396 7.77144C77.3346 7.83389 76.7204 7.89372 76.1113 7.94884C75.5009 8.00413 74.8891 8.05559 74.2864 8.10281C73.6804 8.15032 73.0787 8.194 72.4807 8.2348C71.8827 8.2756 71.257 8.31551 70.6762 8.35022C69.7343 8.40651 68.7988 8.46102 67.864 8.5154C66.9324 8.56953 66.0103 8.62279 65.0727 8.67726C64.1366 8.73163 63.202 8.78617 62.2717 8.84068C61.3409 8.89522 60.4131 8.94997 59.4895 9.00501C59.2853 9.01718 59.0811 9.02938 58.8772 9.04159C58.1489 9.08532 57.4211 9.12943 56.699 9.17376C56.694 9.17402 56.689 9.17427 56.6841 9.17453C55.7545 9.23173 54.8449 9.28845 53.9295 9.34769C53.5935 9.36951 53.2711 9.3906 52.9439 9.41258C52.6157 9.43465 52.2981 9.45644 51.9664 9.47987C51.6368 9.50315 51.3097 9.52694 50.9881 9.55114C50.6629 9.57566 50.3465 9.6003 50.0277 9.62651C49.7355 9.65046 49.4458 9.67571 49.1297 9.70317C49.1009 9.70568 49.072 9.70819 49.0432 9.71071C48.6974 9.74079 48.3046 9.77327 47.9398 9.79975C46.9694 9.86968 46.0505 9.93904 45.0712 10.0166C44.1019 10.0933 43.1395 10.1728 42.1739 10.2547C41.7969 10.2866 41.4189 10.3191 41.0415 10.3515C40.4524 10.4021 39.8735 10.4521 39.2738 10.5037C38.2856 10.5888 37.3005 10.6728 36.3145 10.7544C35.3323 10.8357 34.3493 10.9145 33.3762 10.9894C32.3795 11.0663 31.3796 11.1406 30.3992 11.2107C29.3049 11.2889 28.2347 11.3642 27.1479 11.4416C26.0442 11.5205 24.9486 11.5991 23.8669 11.6774C22.7739 11.7567 21.733 11.8319 20.6159 11.9156C19.5171 11.9975 18.4291 12.0795 17.3508 12.1617C16.7008 12.2114 16.0798 12.2585 15.4122 12.3108C15.0653 12.3614 14.734 12.4102 14.4162 12.4571C12.0641 12.8042 10.4424 13.0523 8.17977 13.3549C7.96665 13.3864 7.79417 13.4166 7.58479 13.4533C7.54485 13.4603 7.50249 13.4676 7.45933 13.4751C7.18603 13.5228 6.87259 13.576 6.43777 13.6368C5.5875 13.7562 4.20705 13.9101 2.45015 13.9737C2.00712 13.9897 1.71028 13.8579 1.78389 13.679C1.83579 13.5534 2.05714 13.4381 2.3382 13.3748C1.81014 13.418 1.28717 13.4603 0.769344 13.5028C0.562641 13.5197 0.36549 13.5048 0.221408 13.4604C0.077409 13.416 -0.00197016 13.3458 -0.000103131 13.2645C0.001791 13.1832 0.085199 13.0969 0.232289 13.0233C0.379326 12.9499 0.577904 12.8955 0.785085 12.8715C1.33468 12.8078 1.88675 12.7446 2.44303 12.6805C2.99977 12.6165 3.55798 12.5518 4.12188 12.4865C4.68897 12.4208 5.24708 12.356 5.79184 12.2928C6.339 12.2292 6.89094 12.1653 7.44749 12.1009C8.0076 12.0361 8.56069 11.972 9.12639 11.907C9.46532 11.868 9.80966 11.8287 10.149 11.7899C10.278 11.7752 10.3923 11.7619 10.5124 11.7482C10.6098 11.737 10.7078 11.726 10.8087 11.7145C11.8706 11.5934 12.9549 11.4711 14.0414 11.3501C15.1387 11.228 16.2244 11.1087 17.2928 10.9925C18.3686 10.8755 19.4541 10.7588 20.5503 10.6427C21.6657 10.5247 22.7002 10.416 23.7908 10.303C24.869 10.1911 25.9607 10.0793 27.0586 9.96767C27.8935 9.88266 28.7107 9.79951 29.5417 9.71535C29.8672 9.66989 30.1901 9.62568 30.5095 9.58248C31.4386 9.45679 32.3777 9.31785 33.3005 9.18184C31.6485 9.35325 30.3316 9.51381 29.0901 9.66715C28.9236 9.68772 28.7584 9.70822 28.5939 9.72857C26.9413 9.93392 25.2427 10.1374 23.0608 10.335C16.7878 10.9054 13.1405 11.2768 10.9041 11.4767C8.64296 11.6814 7.63776 11.7361 6.73012 11.7194C5.46567 11.6933 2.93234 11.8937 1.70548 12.0395C1.25712 12.0924 0.881402 11.9961 0.862389 11.8243C0.84361 11.6525 1.18917 11.4701 1.63815 11.4172C2.94036 11.2623 5.66384 11.0416 7.18521 11.0718C7.86603 11.0848 8.68525 11.0486 10.9076 10.8477C13.1129 10.6508 16.7282 10.2822 23.0168 9.71038C25.1195 9.52001 26.7618 9.32375 28.3951 9.12054C28.558 9.10038 28.7223 9.07987 28.8882 9.05935C28.8892 9.05926 28.8902 9.05917 28.8913 9.05907C30.4112 8.87088 32.1342 8.66199 34.3731 8.44455C39.5927 7.9344 46.6323 7.27172 48.2746 7.08591C48.6007 7.0487 48.9163 7.0109 49.2497 6.97119C50.5299 6.81919 52.0841 6.6337 55.5585 6.33689C56.3215 6.27189 57.2179 6.20172 58.2001 6.12928C59.6601 5.94095 61.0628 5.76462 62.2992 5.63283C63.3642 5.51923 64.3479 5.3784 65.3019 5.23317C65.5732 5.19158 65.8464 5.14886 66.1195 5.10632C66.7779 5.00371 67.438 4.90136 68.0832 4.81355C68.5975 4.74355 69.1364 4.66486 69.707 4.58186C71.7966 4.27889 74.2601 3.92092 77.5288 3.71694C80.9842 3.50153 83.9393 3.36352 86.4952 3.25152C84.6229 3.31862 83.1651 3.35584 81.9602 3.38409C81.7327 3.38945 81.5147 3.3945 81.3049 3.39937C79.8225 3.43391 78.7523 3.45966 77.5915 3.53268C72.0803 3.88131 70.0172 4.07298 67.6973 4.37907C67.0874 4.4599 66.4163 4.55851 65.695 4.665C64.2467 4.87825 62.5742 5.12487 60.7954 5.32477C59.1448 5.51049 57.274 5.74744 55.3054 6.00095C55.3046 6.00101 55.3038 6.00107 55.303 6.00112C54.9186 6.05064 54.5302 6.1008 54.1391 6.15133C51.7765 6.45773 49.212 6.78498 46.7839 7.05816C46.5233 7.08744 46.2115 7.12417 45.8544 7.16648C43.7437 7.41475 40.1426 7.84541 35.6306 8.13625C34.6437 8.19983 33.6511 8.24184 32.4647 8.29589C32.1052 8.3122 31.7326 8.32903 31.3447 8.34749C29.6568 8.4286 27.6999 8.53108 24.9656 8.74303C22.7488 8.91437 20.0445 9.15712 17.2437 9.42172C15.8871 9.54964 14.4557 9.68779 13.0667 9.82267C8.93458 10.2236 5.05469 10.6051 1.21927 11.0148C1.2185 11.0149 1.21773 11.0149 1.21695 11.015C0.768907 11.0629 0.403909 10.9611 0.398387 10.7878C0.393146 10.6145 0.749374 10.435 1.19799 10.3871C5.04215 9.97675 8.91241 9.59679 13.0324 9.1972C14.4015 9.06427 15.8224 8.92709 17.1747 8.79957C19.9912 8.53345 22.7333 8.28728 24.9732 8.11426C27.7581 7.8985 29.7472 7.79477 31.462 7.71244C31.8714 7.693 32.2574 7.67543 32.6246 7.6588C33.7886 7.60632 34.7273 7.56674 35.6625 7.50656C40.0355 7.2249 43.495 6.81069 45.6199 6.56098C45.9869 6.51751 46.3101 6.47949 46.5856 6.44851C48.9636 6.18067 51.4967 5.85759 53.8544 5.55135C54.2409 5.50136 54.626 5.45166 55.0087 5.4023C55.0095 5.40214 55.0103 5.40198 55.011 5.40183C56.9767 5.14826 58.8878 4.90641 60.5671 4.71722C62.282 4.52447 63.783 4.3016 65.1921 4.09414C65.9389 3.98347 66.6593 3.87746 67.373 3.78275C69.8329 3.45767 72.013 3.25865 77.5429 2.90886ZM3.15755 13.3074C4.25233 13.2563 5.17206 13.1664 5.80334 13.0886C5.25794 13.1334 4.68937 13.1805 4.12096 13.2278C3.79824 13.2546 3.4772 13.2811 3.15755 13.3074ZM58.3791 6.74345C58.2019 6.76625 58.0236 6.78928 57.8448 6.81241C58.3406 6.77211 58.8364 6.73236 59.3233 6.6934C59.9237 6.6454 60.5253 6.59791 61.1278 6.5507C60.1675 6.6155 59.2482 6.67963 58.3791 6.74345ZM77.5751 4.34121C74.4913 4.53368 72.2366 4.86091 70.1604 5.16092C69.5662 5.24712 68.9909 5.33078 68.4223 5.40807C68.1865 5.44013 67.9511 5.47393 67.7141 5.509C69.1025 5.42684 70.3842 5.35373 71.4358 5.29455C74.5556 5.11948 76.3316 5.06346 77.9024 5.01363C78.3555 4.99938 78.7965 4.98541 79.2364 4.97032C79.6004 4.92714 79.9786 4.88336 80.3613 4.84196C80.8971 4.78375 81.4771 4.72414 82.0298 4.67011C82.5845 4.61583 83.149 4.56342 83.704 4.51477C84.2637 4.46571 84.8188 4.4198 85.3721 4.376C85.8946 4.33464 86.407 4.29575 86.9072 4.25801C86.9358 4.25586 86.9644 4.25371 86.993 4.25156C87.521 4.21166 88.035 4.17317 88.5073 4.13369C88.9882 4.09337 89.3879 4.05546 89.7423 4.01231C90.1848 3.9585 90.6392 3.90532 91.0889 3.85451C91.5391 3.80361 91.9876 3.75473 92.4352 3.70758C92.8844 3.66031 93.3248 3.61512 93.7689 3.57098C93.9124 3.55672 94.0625 3.54192 94.2049 3.52802C94.2704 3.52161 94.336 3.51514 94.4014 3.5088C93.5305 3.55385 92.6288 3.59984 91.6899 3.64663C90.3361 3.71411 88.892 3.77468 87.3027 3.84315C84.5918 3.96005 81.4362 4.10058 77.5751 4.34121ZM107.611 2.7729C107.232 2.79302 106.678 2.82503 105.962 2.86674C105.792 2.8766 105.614 2.88721 105.427 2.89813C105.431 2.89806 105.436 2.89784 105.44 2.89777C105.905 2.89067 106.334 2.8834 106.797 2.87356C107.621 2.85594 108.422 2.83662 109.231 2.81448C110.043 2.79223 110.853 2.76745 111.663 2.74018C112.475 2.71285 113.288 2.68277 114.095 2.65022C114.911 2.61728 115.714 2.58242 116.524 2.54355C116.782 2.53117 117.041 2.51838 117.3 2.50524C116.721 2.51544 116.121 2.52961 115.486 2.54487C114.979 2.55705 114.45 2.56988 113.894 2.58194C113.681 2.58657 113.423 2.59048 113.123 2.5951C111.932 2.61346 110.064 2.64275 107.611 2.7729ZM123.759 2.05109C123.947 2.03898 124.134 2.02735 124.318 2.01649C124.844 1.98556 125.357 1.95913 125.859 1.93443C126.212 1.91711 126.56 1.90079 126.903 1.88463C127.048 1.8778 127.193 1.87091 127.336 1.86415C127.576 1.85283 127.816 1.84127 128.053 1.82977C126.389 1.87843 124.767 1.93139 123.071 1.99904C123.048 1.99993 123.026 2.00101 123.003 2.00191C123.261 2.01858 123.513 2.03499 123.759 2.05109Z" fill="#2E7D32"/>
</svg>
